<svg xmlns="http://www.w3.org/2000/svg" viewBox="0 0 322 322" width="322" height="322">
<rect width="322" height="322" fill="#0D0D0D"/>
<path d="M0 0 C13.017 11.02 22.86 28.013 25 45 C26.512 67.838 23.801 88.123 8.422 106.074 C5.707 109.144 2.875 112.08 0 115 C-0.708 115.732 -1.415 116.464 -2.145 117.219 C-13.4 128.066 -28.144 133.946 -43 138 C-43.708 138.194 -44.417 138.389 -45.147 138.589 C-51.126 140.08 -56.914 140.385 -63.062 140.375 C-64.068 140.373 -65.074 140.372 -66.11 140.37 C-80.1 140.143 -98.302 136.804 -109 127 C-110 123.688 -110 123.688 -110 121 C-108.375 119.375 -108.375 119.375 -106 118 C-99.571 119.254 -92.895 122.91 -87.123 126.007 C-73.29 132.475 -51.987 130.677 -37.909 125.736 C-16.775 117.585 -0.487 104.159 9.609 83.746 C16.504 67.868 17.244 50.303 11.234 33.911 C5.562 20.143 -3.357 8.651 -17 2 C-17.99 2 -18.98 2 -20 2 C-19.299 2.66 -18.597 3.32 -17.875 4 C-8.302 13.681 -2.8 25.821 -2.722 39.545 C-2.726 39.919 -2.726 39.919 -2.75 41.812 C-2.757 42.601 -2.764 43.389 -2.771 44.201 C-2.948 54.278 -4.884 62.789 -9 72 C-9.66 72 -10.32 72 -11 72 C-11.093 72.726 -11.186 73.451 -11.281 74.199 C-13.507 82.874 -23.315 91.625 -30.833 96.088 C-41.075 101.756 -50.108 105.395 -61.938 105.25 C-62.725 105.244 -63.513 105.238 -64.324 105.232 C-69.8 105.138 -74.777 104.772 -80 103 C-82.313 99.531 -82.425 98.078 -82 94 C-80.474 91.993 -79.607 91.109 -77.099 90.659 C-76.402 90.675 -75.706 90.691 -74.988 90.707 C-74.231 90.717 -73.474 90.726 -72.693 90.736 C-71.908 90.761 -71.122 90.787 -70.312 90.812 C-69.914 90.819 -69.914 90.819 -67.896 90.854 C-65.931 90.889 -63.965 90.943 -62 91 C-62.675 90.564 -63.351 90.129 -64.047 89.68 C-73.492 83.374 -73.492 83.374 -76 78 C-75.75 75.625 -75.75 75.625 -75 74 C-72.938 73.062 -72.938 73.062 -70 73 C-68.09 74.57 -66.502 76.322 -64.832 78.145 C-60.275 82.76 -55.05 84.77 -48.688 85.25 C-43.364 84.889 -39.901 83.897 -36.145 80.148 C-29.274 71.857 -26.227 63.86 -26.621 53.051 C-27.466 46.247 -30.519 41.527 -35.887 37.32 C-43.618 32.49 -51.565 30.766 -60.465 32.473 C-69.994 34.925 -76.644 39.465 -81.809 47.852 C-82.202 48.561 -82.595 49.27 -83 50 C-83.375 50.603 -83.75 51.207 -84.137 51.828 C-86.457 57.667 -85.9 66.15 -84.031 72.066 C-83.302 73.719 -82.524 75.352 -81.68 76.949 C-81 79 -81 79 -81.883 81.27 C-82.067 81.555 -82.067 81.555 -83 83 C-84.65 83 -86.3 83 -88 83 C-88.818 81.419 -89.629 79.835 -90.438 78.25 C-90.89 77.368 -91.342 76.487 -91.809 75.578 C-95.57 67.439 -95.219 56.639 -92.562 48.188 C-88.616 38.798 -80.629 31.178 -71.531 26.816 C-60.76 22.54 -48.025 21.934 -37.188 26.25 C-28.875 30.137 -22.568 36.637 -19.109 45.207 C-18.562 47.125 -18.562 47.125 -18 50 C-17.67 50 -17.34 50 -17 50 C-16.454 37.464 -17.378 25.765 -26 16 C-28.513 13.713 -31.096 11.762 -34 10 C-34.884 9.46 -35.769 8.92 -36.68 8.363 C-40.95 6.61 -44.553 6.504 -49.125 6.562 C-49.548 6.567 -49.548 6.567 -51.687 6.59 C-58.728 6.784 -64.585 8.001 -71 11 C-71.595 11.274 -71.595 11.274 -74.605 12.66 C-81.354 15.935 -87.415 19.767 -93.188 24.562 C-93.716 24.997 -94.244 25.431 -94.789 25.879 C-98.591 29.196 -100.713 32.584 -103 37 C-103.66 37 -104.32 37 -105 37 C-105.083 37.639 -105.165 38.279 -105.25 38.938 C-106.105 42.428 -107.494 45.399 -109.062 48.621 C-112.82 58.156 -112.662 72.131 -108.875 81.562 C-106.727 86.006 -104.134 90.046 -101.137 93.965 C-99.726 96.491 -99.721 98.147 -100 101 C-101 102.812 -101 102.812 -103 104 C-107.835 105.147 -107.835 105.147 -111 104 C-120.887 94.35 -125.818 80.334 -126.25 66.75 C-126.197 65.165 -126.109 63.582 -126 62 C-125.932 60.9 -125.863 59.801 -125.793 58.668 C-124.318 43.194 -118.035 30.753 -108 19 C-107.73 18.674 -107.73 18.674 -106.363 17.023 C-100.973 11.076 -93.788 7.152 -87 3 C-97.468 7.537 -105.077 12.853 -113 21 C-113.713 21.727 -114.426 22.454 -115.16 23.203 C-119.103 27.456 -121.638 31.708 -124 37 C-124.66 37 -125.32 37 -126 37 C-126.103 37.928 -126.206 38.856 -126.312 39.812 C-126.744 42.998 -127.583 45.879 -128.562 48.938 C-131.362 58.865 -130.456 69.769 -128.926 79.863 C-129 82 -129 82 -130.32 83.801 C-132 85 -132 85 -134.562 84.875 C-137 84 -137 84 -139 81 C-140.465 75.396 -140.223 69.691 -140.25 63.938 C-140.271 62.868 -140.291 61.799 -140.312 60.697 C-140.364 50.134 -138.311 40.431 -133.5 31 C-133.159 30.327 -132.818 29.654 -132.466 28.961 C-128.703 21.913 -123.722 16.505 -118 11 C-117.174 10.178 -116.347 9.355 -115.496 8.508 C-86.383 -19.25 -32.511 -24.421 0 0 Z " fill="#94E46D" transform="translate(218.5,98.0)"/>
<path d="M0 0 C13.017 11.02 22.86 28.013 25 45 C26.512 67.838 23.801 88.123 8.422 106.074 C5.707 109.144 2.875 112.08 0 115 C-0.708 115.732 -1.415 116.464 -2.145 117.219 C-13.4 128.066 -28.144 133.946 -43 138 C-43.708 138.194 -44.417 138.389 -45.147 138.589 C-51.126 140.08 -56.914 140.385 -63.062 140.375 C-64.068 140.373 -65.074 140.372 -66.11 140.37 C-80.1 140.143 -98.302 136.804 -109 127 C-110 123.688 -110 123.688 -110 121 C-108.375 119.375 -108.375 119.375 -106 118 C-99.571 119.254 -92.895 122.91 -87.123 126.007 C-73.29 132.475 -51.987 130.677 -37.909 125.736 C-16.775 117.585 -0.487 104.159 9.609 83.746 C16.504 67.868 17.244 50.303 11.234 33.911 C5.502 19.999 -3.401 8.919 -17 2 C-19.275 1.105 -21.531 0.358 -23.879 -0.32 C-26.734 -1.235 -29.265 -2.587 -31.883 -4.035 C-37.775 -6.72 -43.323 -7.359 -49.688 -7.312 C-50.476 -7.308 -51.265 -7.304 -52.078 -7.3 C-61.129 -7.126 -69.135 -5.317 -77.098 -0.953 C-79.084 0.042 -80.991 0.639 -83.125 1.25 C-94.279 4.833 -103.864 11.722 -112 20 C-112.743 20.755 -113.485 21.511 -114.25 22.289 C-118.543 26.881 -121.486 31.239 -124 37 C-124.66 37 -125.32 37 -126 37 C-126.103 37.928 -126.206 38.856 -126.312 39.812 C-126.744 42.998 -127.583 45.879 -128.562 48.938 C-131.362 58.865 -130.456 69.769 -128.926 79.863 C-129 82 -129 82 -130.32 83.801 C-132 85 -132 85 -134.562 84.875 C-137 84 -137 84 -139 81 C-140.465 75.396 -140.223 69.691 -140.25 63.938 C-140.271 62.868 -140.291 61.799 -140.312 60.697 C-140.364 50.134 -138.311 40.431 -133.5 31 C-133.159 30.327 -132.818 29.654 -132.466 28.961 C-128.703 21.913 -123.722 16.505 -118 11 C-117.174 10.178 -116.347 9.355 -115.496 8.508 C-86.383 -19.25 -32.511 -24.421 0 0 Z " fill="#84CB62" transform="translate(218.5,98.0)"/>
<path d="M0 0 C7.602 5.499 13.251 13.696 15 23 C14.875 25.563 14.875 25.563 14 28 C13.67 29.155 13.34 30.31 13 31.5 C9.444 40.669 2.833 49.167 -5 55 C-5.33 54.835 -5.33 54.835 -7 54 C-6.541 53.515 -6.082 53.031 -5.609 52.531 C2.488 43.686 5.408 36.236 5.273 24.262 C4.755 18.078 2.345 14.02 -2.062 9.75 C-8.191 4.947 -15.956 2.253 -23.754 2.684 C-32.614 3.932 -41.059 7.14 -46.824 14.25 C-48.324 16.458 -49.706 18.666 -51 21 C-51.375 21.603 -51.75 22.207 -52.137 22.828 C-54.457 28.667 -53.9 37.15 -52.031 43.066 C-51.302 44.719 -50.524 46.352 -49.68 47.949 C-49 50 -49 50 -49.883 52.27 C-50.251 52.841 -50.62 53.412 -51 54 C-52.65 54 -54.3 54 -56 54 C-56.818 52.419 -57.629 50.835 -58.438 49.25 C-58.89 48.368 -59.342 47.487 -59.809 46.578 C-63.57 38.439 -63.219 27.639 -60.562 19.188 C-56.616 9.798 -48.629 2.178 -39.531 -2.184 C-26.785 -7.243 -11.899 -7.121 0 0 Z " fill="#76B458" transform="translate(186.5,127.0)"/>
<path d="M0 0 C4.3 2.215 6.773 5.023 8.875 9.309 C10.149 13.841 10.523 17.801 8.438 22.121 C5.811 26.016 2.304 27.937 -2.125 29.309 C-5.972 29.624 -8.477 29.525 -12.125 28.309 C-12.125 27.649 -12.125 26.989 -12.125 26.309 C-13.445 25.979 -14.765 25.649 -16.125 25.309 C-16.125 24.649 -16.125 23.989 -16.125 23.309 C-17.445 23.309 -18.765 23.309 -20.125 23.309 C-22.797 17.965 -23.791 14.298 -23.125 8.309 C-21.364 4.719 -19.78 2.788 -16.562 0.434 C-11.134 -1.343 -5.505 -1.791 0 0 Z " fill="#8EDA69" transform="translate(173.6,142.7)"/>
<path d="M0 0 C4.254 2.127 7.455 4.594 9.188 9.062 C8.964 12.566 8.145 14.242 6 17 C2.064 19.624 -0.6 18.748 -5 18 C-5.949 17.918 -6.898 17.835 -7.875 17.75 C-10 17 -10 17 -11.312 14.812 C-12.091 11.628 -12.408 9.264 -12 6 C-8.775 0.996 -5.929 -0.521 0 0 Z " fill="#0F100E" transform="translate(168.5,147.0)"/>
<path d="M0 0 C4.061 0.398 6.083 1.588 9 4.375 C15.545 10.378 20.112 12.306 29 12 C31.006 11.708 33.01 11.388 35 11 C30.579 15.881 23.573 18.67 17.043 19.23 C10.574 18.501 5.115 13.72 1 9 C0.381 8.319 -0.238 7.639 -0.875 6.938 C-2 5 -2 5 -1.75 2.812 C-1 1 -1 1 0 0 Z " fill="#76B358" transform="translate(144.5,171.0)"/>
<path d="M0 0 C-0.568 0.315 -1.137 0.629 -1.723 0.953 C-6.502 3.602 -11.262 6.278 -16 9 C-16 8.01 -16 7.02 -16 6 C-13.902 4.8 -11.798 3.615 -9.688 2.438 C-9.39 2.266 -9.39 2.266 -7.885 1.4 C-3.34 -1.113 -3.34 -1.113 0 0 Z " fill="#283820" transform="translate(135.5,100.0)"/>
</svg>